<?xml version="1.0" encoding="UTF-8" standalone="no"?>
<svg width="1024" height="1024" viewBox="0 0 1024 1024" xmlns="http://www.w3.org/2000/svg">
  <!-- Rounded Square Background -->
  <rect x="100" y="100" width="824" height="824" rx="200" ry="200" fill="#ffeb3b" />
  
  <!-- Shopping Cart Icon - Enlarged by approximately 25% -->
  <g transform="matrix(2.7,0,0,2.7,512,410)" fill="#000000">
    <!-- Cart Handle -->
    <path d="M-85,0 L-65,0 L-40,-60 L90,-60 L80,-30 L-30,-30 L-85,0 Z" />
    <!-- Cart Body -->
    <path d="M-50,0 L80,0 L100,-50 L-30,-50 Z" stroke="#000000" stroke-width="8" fill="none" />
    <!-- Cart Grid Lines -->
    <path d="M-30,-17 L70,-17 M-20,-34 L80,-34 M20,-50 L20,0 M50,-50 L50,0" stroke="#000000" stroke-width="6" fill="none" />
    <!-- Wheels -->
    <circle cx="-25" cy="15" r="15" />
    <circle cx="55" cy="15" r="15" />
  </g>
  
  <!-- MALBROSE Text -->
  <text x="512" y="650" font-family="Arial, sans-serif" font-weight="bold" font-size="90" text-anchor="middle" fill="#000000">MALBROSE</text>
  
  <!-- POS SYSTEM Text -->
  <text x="512" y="720" font-family="Arial, sans-serif" font-size="45" text-anchor="middle" fill="#000000">POS SYSTEM</text>
</svg> 